<svg id="bell 1" viewBox="0 0 20 23" fill="none" xmlns="http://www.w3.org/2000/svg">
	<path d="M9.28571 0.71875C9.28571 0.323437 9.60714 0 10 0C10.3929 0 10.7143 0.323437 10.7143 0.71875V1.47344C14.3259 1.83281 17.1429 4.89648 17.1429 8.625V9.93223C17.1429 11.8953 17.9196 13.7775 19.2991 15.1701L19.4241 15.2959C19.7946 15.6687 20.0045 16.1764 20.0045 16.702C20.0045 17.8025 19.1205 18.692 18.0268 18.692L1.97768 18.6875C0.883929 18.6875 0 17.798 0 16.6975C0 16.1719 0.209821 15.6643 0.580357 15.2914L0.705357 15.1656C2.08036 13.7775 2.85714 11.8953 2.85714 9.93223V8.625C2.85714 4.89648 5.67411 1.83281 9.28571 1.47344V0.71875ZM10 2.875C6.84375 2.875 4.28571 5.44902 4.28571 8.625V9.93223C4.28571 12.2771 3.36161 14.5277 1.70982 16.1854L1.58929 16.3066C1.48661 16.41 1.42857 16.5492 1.42857 16.6975C1.42857 17.0029 1.67411 17.25 1.97768 17.25H18.0223C18.3259 17.25 18.5714 17.0029 18.5714 16.6975C18.5714 16.5492 18.5134 16.41 18.4107 16.3066L18.2857 16.1809C16.6384 14.5232 15.7098 12.2727 15.7098 9.92773V8.62051C15.7098 5.44453 13.1518 2.87051 9.99554 2.87051L10 2.875ZM8.65179 20.6057C8.84822 21.1627 9.37946 21.5625 10 21.5625C10.6205 21.5625 11.1518 21.1627 11.3482 20.6057C11.4777 20.2328 11.8884 20.0352 12.2589 20.1654C12.6295 20.2957 12.8259 20.709 12.6964 21.0818C12.3036 22.2004 11.2455 23 10 23C8.75446 23 7.69643 22.2004 7.30357 21.0818C7.17411 20.709 7.36607 20.2957 7.74107 20.1654C8.11607 20.0352 8.52232 20.2283 8.65179 20.6057Z" fill="white"/>
</svg>
