<svg id="patients" viewBox="0 0 33 24" fill="none" xmlns="http://www.w3.org/2000/svg">
	<path fill="#B5C6C0" d="M4.5 3.75C4.5 2.95435 4.83714 2.19129 5.43726 1.62868C6.03737 1.06607 6.85131 0.75 7.7 0.75C8.54869 0.75 9.36263 1.06607 9.96274 1.62868C10.5629 2.19129 10.9 2.95435 10.9 3.75C10.9 4.54565 10.5629 5.30871 9.96274 5.87132C9.36263 6.43393 8.54869 6.75 7.7 6.75C6.85131 6.75 6.03737 6.43393 5.43726 5.87132C4.83714 5.30871 4.5 4.54565 4.5 3.75ZM11.7 3.75C11.7 2.75544 11.2786 1.80161 10.5284 1.09835C9.77828 0.395088 8.76087 0 7.7 0C6.63913 0 5.62172 0.395088 4.87157 1.09835C4.12143 1.80161 3.7 2.75544 3.7 3.75C3.7 4.74456 4.12143 5.69839 4.87157 6.40165C5.62172 7.10491 6.63913 7.5 7.7 7.5C8.76087 7.5 9.77828 7.10491 10.5284 6.40165C11.2786 5.69839 11.7 4.74456 11.7 3.75ZM16.5 6.75C17.5609 6.75 18.5783 7.14509 19.3284 7.84835C20.0786 8.55161 20.5 9.50544 20.5 10.5C20.5 11.4946 20.0786 12.4484 19.3284 13.1517C18.5783 13.8549 17.5609 14.25 16.5 14.25C15.4391 14.25 14.4217 13.8549 13.6716 13.1517C12.9214 12.4484 12.5 11.4946 12.5 10.5C12.5 9.50544 12.9214 8.55161 13.6716 7.84835C14.4217 7.14509 15.4391 6.75 16.5 6.75ZM16.5 15C17.1303 15 17.7545 14.8836 18.3369 14.6575C18.9192 14.4313 19.4484 14.0998 19.8941 13.682C20.3398 13.2641 20.6934 12.768 20.9346 12.2221C21.1758 11.6761 21.3 11.0909 21.3 10.5C21.3 9.90905 21.1758 9.32389 20.9346 8.77792C20.6934 8.23196 20.3398 7.73588 19.8941 7.31802C19.4484 6.90016 18.9192 6.56869 18.3369 6.34254C17.7545 6.1164 17.1303 6 16.5 6C15.8697 6 15.2455 6.1164 14.6631 6.34254C14.0808 6.56869 13.5516 6.90016 13.1059 7.31802C12.6602 7.73588 12.3066 8.23196 12.0654 8.77792C11.8242 9.32389 11.7 9.90905 11.7 10.5C11.7 11.0909 11.8242 11.6761 12.0654 12.2221C12.3066 12.768 12.6602 13.2641 13.1059 13.682C13.5516 14.0998 14.0808 14.4313 14.6631 14.6575C15.2455 14.8836 15.8697 15 16.5 15ZM13.565 17.25H19.43C22.675 17.25 25.3 19.7109 25.3 22.7484C25.3 23.025 25.06 23.25 24.765 23.25H8.23C7.935 23.25 7.695 23.025 7.695 22.7484C7.7 19.7109 10.325 17.25 13.565 17.25ZM13.565 16.5C9.885 16.5 6.9 19.2984 6.9 22.7484C6.9 23.4375 7.495 24 8.235 24H24.77C25.505 24 26.105 23.4422 26.105 22.7484C26.1 19.2984 23.115 16.5 19.435 16.5H13.57H13.565ZM26.1 0.75C26.9487 0.75 27.7626 1.06607 28.3627 1.62868C28.9629 2.19129 29.3 2.95435 29.3 3.75C29.3 4.54565 28.9629 5.30871 28.3627 5.87132C27.7626 6.43393 26.9487 6.75 26.1 6.75C25.2513 6.75 24.4374 6.43393 23.8373 5.87132C23.2371 5.30871 22.9 4.54565 22.9 3.75C22.9 2.95435 23.2371 2.19129 23.8373 1.62868C24.4374 1.06607 25.2513 0.75 26.1 0.75ZM26.1 7.5C27.1609 7.5 28.1783 7.10491 28.9284 6.40165C29.6786 5.69839 30.1 4.74456 30.1 3.75C30.1 2.75544 29.6786 1.80161 28.9284 1.09835C28.1783 0.395088 27.1609 0 26.1 0C25.0391 0 24.0217 0.395088 23.2716 1.09835C22.5214 1.80161 22.1 2.75544 22.1 3.75C22.1 4.74456 22.5214 5.69839 23.2716 6.40165C24.0217 7.10491 25.0391 7.5 26.1 7.5ZM27.3 9.75C29.73 9.75 31.7 11.5969 31.7 13.875C31.7 14.0813 31.88 14.25 32.1 14.25C32.32 14.25 32.5 14.0813 32.5 13.875C32.5 11.1844 30.17 9 27.3 9H22.7C22.765 9.24375 22.82 9.49687 22.85 9.75H27.3ZM10.15 9.75C10.185 9.49687 10.235 9.24375 10.3 9H5.7C2.83 9 0.5 11.1844 0.5 13.875C0.5 14.0813 0.68 14.25 0.9 14.25C1.12 14.25 1.3 14.0813 1.3 13.875C1.3 11.5969 3.27 9.75 5.7 9.75H10.15Z" />
</svg>