<svg id="gear 1" viewBox="0 0 20 21" fill="none" xmlns="http://www.w3.org/2000/svg">
	<path d="M8.72265 1.97656C8.73828 1.91797 8.77343 1.86719 8.8164 1.82812C9.20312 1.77734 9.59765 1.75 10 1.75C10.4023 1.75 10.7969 1.77734 11.1836 1.82812C11.2266 1.86719 11.2578 1.91797 11.2773 1.97656L11.8125 3.83984C11.9492 4.3125 12.2891 4.66406 12.6914 4.85938C12.9883 5 13.2695 5.16406 13.5391 5.34766C13.9062 5.60156 14.3867 5.71875 14.8633 5.60156L16.7461 5.13281C16.8047 5.11719 16.8633 5.12109 16.918 5.14062C17.1289 5.41016 17.3242 5.69531 17.5 5.99219L17.668 6.28125C17.832 6.57422 17.9766 6.87891 18.1055 7.19141C18.0937 7.25 18.0664 7.30469 18.0234 7.34766L16.6719 8.74219C16.332 9.09375 16.1953 9.56641 16.2305 10.0117C16.2422 10.1719 16.25 10.3359 16.25 10.5C16.25 10.6641 16.2422 10.8281 16.2305 10.9883C16.1953 11.4336 16.332 11.9062 16.6719 12.2578L18.0195 13.6523C18.0625 13.6953 18.0898 13.75 18.1016 13.8086C17.9727 14.1211 17.8281 14.4258 17.6641 14.7227L17.5 15.0078C17.3203 15.3047 17.125 15.5859 16.918 15.8594C16.8633 15.8789 16.8047 15.8789 16.7461 15.8672L14.8633 15.3984C14.3867 15.2812 13.9102 15.3984 13.5391 15.6523C13.2695 15.8359 12.9883 16 12.6914 16.1406C12.2891 16.332 11.9453 16.6875 11.8125 17.1602L11.2773 19.0234C11.2617 19.082 11.2266 19.1328 11.1836 19.1719C10.7969 19.2227 10.4023 19.25 10 19.25C9.59765 19.25 9.20312 19.2227 8.8164 19.1719C8.77343 19.1328 8.74218 19.082 8.72265 19.0234L8.1875 17.1602C8.05078 16.6875 7.71093 16.3359 7.30859 16.1406C7.01172 16 6.73046 15.8359 6.46093 15.6523C6.09375 15.3984 5.61328 15.2812 5.13672 15.3984L3.2539 15.8672C3.19531 15.8828 3.13671 15.8789 3.08203 15.8594C2.87109 15.5859 2.67578 15.3047 2.49609 15.0078L2.33203 14.7227C2.16796 14.4297 2.02343 14.125 1.89453 13.8086C1.90625 13.75 1.93359 13.6953 1.97656 13.6523L3.32812 12.2578C3.66796 11.9062 3.80468 11.4336 3.76953 10.9883C3.75781 10.8281 3.75 10.6641 3.75 10.5C3.75 10.3359 3.75781 10.1719 3.76953 10.0117C3.80468 9.56641 3.66796 9.09375 3.32812 8.74219L1.98046 7.34375C1.9375 7.30078 1.91015 7.24609 1.89843 7.1875C2.02734 6.875 2.17187 6.57031 2.33593 6.27344L2.5 5.98828C2.67968 5.69141 2.875 5.41016 3.08593 5.13672C3.14062 5.11719 3.19922 5.11719 3.25781 5.12891L5.14062 5.59766C5.61718 5.71484 6.09375 5.59766 6.46484 5.34375C6.73437 5.16016 7.01562 4.99609 7.3125 4.85547C7.71484 4.66406 8.05859 4.30859 8.1914 3.83594L8.72656 1.97266L8.72265 1.97656ZM10 0.5C9.49218 0.5 8.98828 0.539063 8.5 0.613281C8.43359 0.625 8.36718 0.644531 8.30468 0.675781C7.93359 0.867188 7.64453 1.20703 7.52343 1.63281L6.98828 3.49609C6.96484 3.58203 6.89062 3.67188 6.76953 3.73047C6.41406 3.89844 6.07421 4.09766 5.7539 4.31641C5.64453 4.39062 5.52734 4.41016 5.4414 4.38672L3.55859 3.91797C3.13281 3.8125 2.69531 3.89453 2.34375 4.11719C2.28515 4.15234 2.23437 4.19922 2.1914 4.25391C1.91406 4.60156 1.65625 4.96484 1.42578 5.34766L1.42187 5.35938L1.25 5.65625L1.24609 5.66797C1.03515 6.05078 0.847652 6.44531 0.687496 6.85547C0.664058 6.91797 0.648433 6.98438 0.644527 7.05078C0.624996 7.47266 0.773433 7.89453 1.08203 8.21484L2.42968 9.60938C2.49218 9.67578 2.53515 9.78125 2.52343 9.91406C2.50781 10.1094 2.5 10.3047 2.5 10.5C2.5 10.6953 2.50781 10.8945 2.52343 11.0859C2.53515 11.2188 2.49218 11.3281 2.42968 11.3906L1.08203 12.7891C0.773433 13.1094 0.624996 13.5312 0.644527 13.9531C0.648433 14.0195 0.664058 14.0859 0.687496 14.1484C0.847652 14.5586 1.03515 14.9531 1.24609 15.3359L1.25 15.3477L1.42187 15.6445L1.42578 15.6562C1.65625 16.0391 1.91015 16.4062 2.1914 16.7539C2.23437 16.8086 2.28515 16.8555 2.34375 16.8906C2.69531 17.1133 3.13281 17.1953 3.55859 17.0898L5.4414 16.6211C5.52734 16.5977 5.64453 16.6172 5.7539 16.6914C6.07421 16.9141 6.41406 17.1094 6.76953 17.2773C6.89062 17.3359 6.96093 17.4258 6.98828 17.5117L7.52343 19.3672C7.64453 19.7891 7.93359 20.1289 8.30468 20.3242C8.36718 20.3555 8.42968 20.3789 8.5 20.3867C8.98828 20.4609 9.49218 20.5 10 20.5C10.5078 20.5 11.0117 20.4609 11.5 20.3867C11.5664 20.375 11.6328 20.3555 11.6953 20.3242C12.0664 20.1328 12.3555 19.793 12.4766 19.3672L13.0117 17.5039C13.0352 17.418 13.1094 17.3281 13.2305 17.2695C13.5859 17.1016 13.9258 16.9023 14.2461 16.6836C14.3555 16.6094 14.4727 16.5898 14.5586 16.6133L16.4414 17.082C16.8672 17.1875 17.3047 17.1094 17.6562 16.8828C17.7148 16.8477 17.7656 16.8008 17.8086 16.7461C18.0859 16.3984 18.3398 16.0352 18.5703 15.6523L18.5781 15.6406L18.75 15.3438L18.7539 15.332C18.9648 14.9531 19.1523 14.5547 19.3125 14.1445C19.3359 14.082 19.3516 14.0156 19.3555 13.9492C19.375 13.5273 19.2266 13.1055 18.918 12.7852L17.5703 11.3906C17.5078 11.3242 17.4648 11.2188 17.4766 11.0859C17.4922 10.8906 17.5 10.6953 17.5 10.5C17.5 10.3047 17.4922 10.1055 17.4766 9.91406C17.4648 9.78125 17.5078 9.67188 17.5703 9.60938L18.918 8.21484C19.2266 7.89453 19.375 7.47266 19.3555 7.05078C19.3516 6.98438 19.3359 6.91797 19.3125 6.85547C19.1523 6.44531 18.9648 6.05078 18.7539 5.66797L18.75 5.65625L18.5781 5.35938L18.5703 5.34766C18.3398 4.96484 18.0859 4.59766 17.8086 4.25391C17.7656 4.19922 17.7148 4.15234 17.6562 4.11719C17.3047 3.89453 16.8672 3.8125 16.4414 3.91797L14.5586 4.38672C14.4727 4.41016 14.3555 4.39062 14.2461 4.31641C13.9258 4.09375 13.5859 3.89844 13.2305 3.73047C13.1094 3.67188 13.0391 3.58203 13.0117 3.49609L12.4766 1.63281C12.3555 1.21094 12.0664 0.871094 11.6953 0.675781C11.6328 0.644531 11.5703 0.621094 11.5 0.613281C11.0117 0.539063 10.5078 0.5 10 0.5ZM7.8125 10.5C7.8125 9.91984 8.04296 9.36344 8.4532 8.9532C8.86344 8.54297 9.41984 8.3125 10 8.3125C10.5802 8.3125 11.1366 8.54297 11.5468 8.9532C11.957 9.36344 12.1875 9.91984 12.1875 10.5C12.1875 11.0802 11.957 11.6366 11.5468 12.0468C11.1366 12.457 10.5802 12.6875 10 12.6875C9.41984 12.6875 8.86344 12.457 8.4532 12.0468C8.04296 11.6366 7.8125 11.0802 7.8125 10.5ZM13.4375 10.5C13.4375 9.58832 13.0753 8.71398 12.4307 8.06932C11.786 7.42466 10.9117 7.0625 10 7.0625C9.08832 7.0625 8.21397 7.42466 7.56932 8.06932C6.92466 8.71398 6.5625 9.58832 6.5625 10.5C6.5625 11.4117 6.92466 12.286 7.56932 12.9307C8.21397 13.5753 9.08832 13.9375 10 13.9375C10.9117 13.9375 11.786 13.5753 12.4307 12.9307C13.0753 12.286 13.4375 11.4117 13.4375 10.5Z" fill="white"/>
</svg>
