<svg id="list 1" viewBox="0 0 20 18" fill="none" xmlns="http://www.w3.org/2000/svg">
	<path d="M1.875 3.375V2.125H3.125V3.375H1.875ZM0.625 1.8125V3.6875C0.625 4.20703 1.04297 4.625 1.5625 4.625H3.4375C3.95703 4.625 4.375 4.20703 4.375 3.6875V1.8125C4.375 1.29297 3.95703 0.875 3.4375 0.875H1.5625C1.04297 0.875 0.625 1.29297 0.625 1.8125ZM6.875 2.125C6.53125 2.125 6.25 2.40625 6.25 2.75C6.25 3.09375 6.53125 3.375 6.875 3.375H19.375C19.7188 3.375 20 3.09375 20 2.75C20 2.40625 19.7188 2.125 19.375 2.125H6.875ZM6.875 8.375C6.53125 8.375 6.25 8.65625 6.25 9C6.25 9.34375 6.53125 9.625 6.875 9.625H19.375C19.7188 9.625 20 9.34375 20 9C20 8.65625 19.7188 8.375 19.375 8.375H6.875ZM6.875 14.625C6.53125 14.625 6.25 14.9062 6.25 15.25C6.25 15.5938 6.53125 15.875 6.875 15.875H19.375C19.7188 15.875 20 15.5938 20 15.25C20 14.9062 19.7188 14.625 19.375 14.625H6.875ZM1.875 8.375H3.125V9.625H1.875V8.375ZM1.5625 7.125C1.04297 7.125 0.625 7.54297 0.625 8.0625V9.9375C0.625 10.457 1.04297 10.875 1.5625 10.875H3.4375C3.95703 10.875 4.375 10.457 4.375 9.9375V8.0625C4.375 7.54297 3.95703 7.125 3.4375 7.125H1.5625ZM1.875 15.875V14.625H3.125V15.875H1.875ZM0.625 14.3125V16.1875C0.625 16.707 1.04297 17.125 1.5625 17.125H3.4375C3.95703 17.125 4.375 16.707 4.375 16.1875V14.3125C4.375 13.793 3.95703 13.375 3.4375 13.375H1.5625C1.04297 13.375 0.625 13.793 0.625 14.3125Z" fill="white"/>
</svg>
